<svg xmlns="http://www.w3.org/2000/svg" xmlns:xlink="http://www.w3.org/1999/xlink" width="450" viewBox="0 0 450 150" height="150" version="1.0"><defs><clipPath id="b"><path d="M 0 3.914062 L 450 3.914062 L 450 128 L 0 128 Z M 0 3.914062"/></clipPath><clipPath id="e"><path d="M 0 1 L 450 1 L 450 146 L 0 146 Z M 0 1"/></clipPath><clipPath id="d"><path d="M0 0H450V146H0z"/></clipPath><clipPath id="h"><path d="M 0 0 L 450 0 L 450 96 L 0 96 Z M 0 0"/></clipPath><clipPath id="g"><path d="M0 0H450V96H0z"/></clipPath><clipPath id="k"><path d="M 0 0.121094 L 450 0.121094 L 450 45 L 0 45 Z M 0 0.121094"/></clipPath><clipPath id="j"><path d="M0 0H450V45H0z"/></clipPath><mask id="c"><g filter="url(#a)"><path fill-opacity=".647" d="M-45 -15H495V165H-45z"/></g></mask><mask id="f"><g filter="url(#a)"><path fill-opacity=".647" d="M-45 -15H495V165H-45z"/></g></mask><mask id="i"><g filter="url(#a)"><path fill-opacity=".647" d="M-45 -15H495V165H-45z"/></g></mask><filter x="0%" y="0%" width="100%" xmlns:xlink="http://www.w3.org/1999/xlink" xlink:type="simple" xlink:actuate="onLoad" height="100%" id="a" xlink:show="other"><feColorMatrix values="0 0 0 0 1 0 0 0 0 1 0 0 0 0 1 0 0 0 1 0" color-interpolation-filters="sRGB"/></filter></defs><path fill="#FFF" d="M-45 -15H495V165H-45z"/><path fill="#FFF" d="M-45 -15H495V165H-45z"/><path fill="#0C0B23" d="M-45 -15H495V165H-45z"/><g clip-path="url(#b)"><path stroke-linecap="round" transform="matrix(.74997 0 0 .75084 -60.763 3.913)" fill="none" d="M 77.702625 148.033035 L 228.609872 123.102698 L 381.017179 65.448692 L 533.424487 62.3324 L 684.331733 1.5569" stroke="#7A6695" stroke-width="3"/></g><path stroke-linecap="round" transform="matrix(.74997 0 0 .75084 -60.763 3.913)" fill="none" d="M 77.702625 176.084866 L 228.609872 169.852282 L 381.017179 104.404945 L 533.424487 124.663445 L 684.331733 67.004237" stroke="#1B0D33" stroke-width="3"/><path stroke-linecap="round" transform="matrix(.74997 0 0 .75084 -60.763 3.913)" fill="none" d="M 77.702625 194.782619 L 228.609872 176.084866 L 381.017179 135.567866 L 533.424487 148.033035 L 684.331733 144.916742" stroke="#1B0D33" stroke-width="3"/><g mask="url(#c)"><g><g clip-path="url(#d)" transform="translate(0 4)"><g clip-path="url(#e)"><path fill="#7A6695" d="M -3.613281 146.164062 L -3.613281 111.0625 L 110.6875 92.34375 L 224.988281 49.054688 L 339.285156 46.714844 L 453.585938 1.082031 L 453.585938 146.164062 Z M -3.613281 146.164062"/></g></g></g></g><g mask="url(#f)"><g><g clip-path="url(#g)" transform="translate(0 54)"><g clip-path="url(#h)"><path fill="#1B0D33" d="M -3.613281 96.164062 L -3.613281 82.121094 L 110.6875 77.441406 L 224.988281 28.304688 L 339.285156 43.511719 L 453.585938 0.222656 L 453.585938 96.164062 Z M -3.613281 96.164062"/></g></g></g></g><g mask="url(#i)"><g><g clip-path="url(#j)" transform="translate(0 105)"><g clip-path="url(#k)"><path fill="#1B0D33" d="M -3.613281 45.164062 L 110.6875 31.121094 L 224.988281 0.703125 L 339.285156 10.0625 L 453.585938 7.722656 L 453.585938 45.164062 Z M -3.613281 45.164062"/></g></g></g></g></svg>